<svg width="367" height="103" viewBox="0 0 367 103" fill="none" xmlns="http://www.w3.org/2000/svg">
<circle cx="51.5" cy="51.5" r="49.4704" stroke="white" stroke-width="4.05911"/>
<path d="M31.2044 39.5765L51.5 8.37207L70.7808 39.5765L60.3793 34.7563L79.4064 65.1997L66.2143 62.1553L82.9581 84.4804L54.798 78.3918V87.2711H48.2019V78.3918L19.2808 84.7341L36.532 62.409L23.3399 64.6923L42.1133 34.7563L31.2044 39.5765Z" fill="white"/>
<path d="M131.921 73V63.6689H142.79C145.228 63.6689 147.279 63.1221 148.942 62.0283C150.606 60.9346 151.859 59.3053 152.702 57.1406C153.568 54.9759 154.001 52.2985 154.001 49.1084V47.0918C154.001 43.8789 153.568 41.2015 152.702 39.0596C151.859 36.9176 150.606 35.3112 148.942 34.2402C147.279 33.1465 145.217 32.5996 142.756 32.5996H131.716V23.2344H142.756C147.268 23.2344 151.244 24.2484 154.685 26.2764C158.148 28.2816 160.86 31.0843 162.819 34.6846C164.779 38.262 165.759 42.4206 165.759 47.1602V49.1084C165.759 53.8252 164.779 57.9837 162.819 61.584C160.86 65.1615 158.16 67.9642 154.719 69.9922C151.278 71.9974 147.302 73 142.79 73H131.921ZM138.586 73H126.965V23.2344H138.586V73ZM191.223 48.4932C191.223 46.9437 190.858 45.7246 190.129 44.8359C189.423 43.9245 188.249 43.4688 186.608 43.4688C185.674 43.4688 184.877 43.6169 184.216 43.9131C183.578 44.1865 183.088 44.6195 182.746 45.2119C182.404 45.7816 182.233 46.5107 182.233 47.3994H171.125C171.125 45.098 171.786 43.0472 173.107 41.2471C174.429 39.4242 176.286 37.9886 178.679 36.9404C181.094 35.8695 183.931 35.334 187.189 35.334C190.106 35.334 192.704 35.8239 194.982 36.8037C197.284 37.7835 199.095 39.2533 200.417 41.2129C201.739 43.1725 202.399 45.6221 202.399 48.5615V63.6689C202.399 66.0615 202.536 67.8844 202.81 69.1377C203.083 70.3682 203.47 71.4505 203.972 72.3848V73H192.795C192.271 71.8835 191.872 70.5049 191.599 68.8643C191.348 67.2236 191.223 65.526 191.223 63.7715V48.4932ZM192.624 56.5938H187.634C185.355 56.5938 183.749 57.1292 182.814 58.2002C181.88 59.2484 181.413 60.4674 181.413 61.8574C181.413 62.8828 181.778 63.7259 182.507 64.3867C183.259 65.0475 184.239 65.3779 185.446 65.3779C186.768 65.3779 187.896 65.1273 188.83 64.626C189.764 64.1247 190.482 63.5322 190.983 62.8486C191.485 62.1423 191.724 61.5042 191.701 60.9346L194.333 65.6514C193.946 66.5628 193.456 67.4857 192.863 68.4199C192.271 69.3542 191.53 70.2201 190.642 71.0176C189.753 71.8151 188.671 72.4645 187.395 72.9658C186.141 73.4443 184.637 73.6836 182.883 73.6836C180.581 73.6836 178.462 73.2165 176.525 72.2822C174.611 71.3252 173.085 70.015 171.945 68.3516C170.829 66.6654 170.271 64.7285 170.271 62.541C170.271 58.6901 171.683 55.6937 174.509 53.5518C177.357 51.4098 181.687 50.3389 187.497 50.3389H192.624V56.5938ZM220.378 73H209.27V36.0176H219.694L220.378 45.0752V73ZM231.042 46.5449C230.563 46.4993 229.948 46.4424 229.196 46.374C228.467 46.3057 227.84 46.2715 227.316 46.2715C225.539 46.2715 224.081 46.5335 222.941 47.0576C221.825 47.5589 220.993 48.3337 220.446 49.3818C219.922 50.4072 219.649 51.7061 219.626 53.2783L217.541 52.0137C217.541 48.7324 217.963 45.8385 218.806 43.332C219.649 40.8255 220.845 38.8659 222.395 37.4531C223.967 36.0404 225.858 35.334 228.068 35.334C228.592 35.334 229.151 35.3682 229.743 35.4365C230.336 35.5049 230.826 35.6074 231.213 35.7441L231.042 46.5449ZM246.56 73H235.417V20.4658H246.56V73ZM254.079 54.8164L245.397 63.498L240.954 55.9102L247.961 46.6816L256.677 36.0176H270.007L254.079 54.8164ZM248.2 56.2861L256.164 50.0654L270.998 73H258.215L248.2 56.2861ZM285.319 36.0176V74.2646C285.319 78.6852 284.112 82.069 281.696 84.416C279.304 86.763 275.988 87.9365 271.75 87.9365C270.816 87.9365 269.938 87.891 269.118 87.7998C268.275 87.7087 267.386 87.5605 266.452 87.3555V78.5371C267.022 78.6283 267.557 78.6966 268.059 78.7422C268.56 78.8105 269.084 78.8447 269.631 78.8447C271.089 78.8447 272.206 78.4688 272.98 77.7168C273.755 76.9876 274.143 75.8369 274.143 74.2646V36.0176H285.319ZM279.748 32.4629C277.902 32.4629 276.41 31.9388 275.271 30.8906C274.154 29.8197 273.596 28.4639 273.596 26.8232C273.596 25.1598 274.154 23.804 275.271 22.7559C276.41 21.7077 277.902 21.1836 279.748 21.1836C281.617 21.1836 283.109 21.7077 284.226 22.7559C285.365 23.804 285.935 25.1598 285.935 26.8232C285.935 28.4639 285.365 29.8197 284.226 30.8906C283.109 31.9388 281.617 32.4629 279.748 32.4629ZM313.449 48.4932C313.449 46.9437 313.085 45.7246 312.355 44.8359C311.649 43.9245 310.476 43.4688 308.835 43.4688C307.901 43.4688 307.103 43.6169 306.442 43.9131C305.804 44.1865 305.314 44.6195 304.973 45.2119C304.631 45.7816 304.46 46.5107 304.46 47.3994H293.352C293.352 45.098 294.012 43.0472 295.334 41.2471C296.656 39.4242 298.513 37.9886 300.905 36.9404C303.321 35.8695 306.158 35.334 309.416 35.334C312.333 35.334 314.93 35.8239 317.209 36.8037C319.51 37.7835 321.322 39.2533 322.644 41.2129C323.965 43.1725 324.626 45.6221 324.626 48.5615V63.6689C324.626 66.0615 324.763 67.8844 325.036 69.1377C325.31 70.3682 325.697 71.4505 326.198 72.3848V73H315.021C314.497 71.8835 314.099 70.5049 313.825 68.8643C313.575 67.2236 313.449 65.526 313.449 63.7715V48.4932ZM314.851 56.5938H309.86C307.582 56.5938 305.975 57.1292 305.041 58.2002C304.107 59.2484 303.64 60.4674 303.64 61.8574C303.64 62.8828 304.004 63.7259 304.733 64.3867C305.485 65.0475 306.465 65.3779 307.673 65.3779C308.994 65.3779 310.122 65.1273 311.057 64.626C311.991 64.1247 312.709 63.5322 313.21 62.8486C313.711 62.1423 313.951 61.5042 313.928 60.9346L316.56 65.6514C316.172 66.5628 315.682 67.4857 315.09 68.4199C314.497 69.3542 313.757 70.2201 312.868 71.0176C311.979 71.8151 310.897 72.4645 309.621 72.9658C308.368 73.4443 306.864 73.6836 305.109 73.6836C302.808 73.6836 300.689 73.2165 298.752 72.2822C296.838 71.3252 295.311 70.015 294.172 68.3516C293.055 66.6654 292.497 64.7285 292.497 62.541C292.497 58.6901 293.91 55.6937 296.735 53.5518C299.584 51.4098 303.913 50.3389 309.724 50.3389H314.851V56.5938ZM337.546 20.9102C339.414 20.9102 340.907 21.4456 342.023 22.5166C343.163 23.5648 343.732 24.9092 343.732 26.5498C343.732 28.1904 343.163 29.5462 342.023 30.6172C340.907 31.6654 339.414 32.1895 337.546 32.1895C335.7 32.1895 334.208 31.6654 333.068 30.6172C331.952 29.5462 331.394 28.1904 331.394 26.5498C331.394 24.9092 331.952 23.5648 333.068 22.5166C334.208 21.4456 335.7 20.9102 337.546 20.9102ZM343.151 73H331.975V36.0176H343.151V73ZM362.224 73H351.081V20.5H362.224V73Z" fill="white"/>
</svg>
